<?xml version="1.0" encoding="UTF-8" standalone="no"?>
<!-- Generator: Adobe Illustrator 16.0.0, SVG Export Plug-In . SVG Version: 6.00 Build 0)  -->

<svg
   xmlns:dc="http://purl.org/dc/elements/1.1/"
   xmlns:cc="http://creativecommons.org/ns#"
   xmlns:rdf="http://www.w3.org/1999/02/22-rdf-syntax-ns#"
   xmlns:svg="http://www.w3.org/2000/svg"
   xmlns="http://www.w3.org/2000/svg"
   xmlns:sodipodi="http://sodipodi.sourceforge.net/DTD/sodipodi-0.dtd"
   xmlns:inkscape="http://www.inkscape.org/namespaces/inkscape"
   version="1.1"
   id="Capa_1"
   x="0px"
   y="0px"
   width="449.848px"
   height="449.848px"
   viewBox="0 0 449.848 449.848"
   style="enable-background:new 0 0 449.848 449.848;"
   xml:space="preserve"
   inkscape:version="0.91 r13725"
   sodipodi:docname="BugVectorImage.svg"
   inkscape:export-filename="C:\Users\Hampus\Documents\Unity_Projects\VirtuellEtologi\Assets\bug3.png"
   inkscape:export-xdpi="90"
   inkscape:export-ydpi="90"><metadata
     id="metadata41"><rdf:RDF><cc:Work
         rdf:about=""><dc:format>image/svg+xml</dc:format><dc:type
           rdf:resource="http://purl.org/dc/dcmitype/StillImage" /><dc:title></dc:title></cc:Work></rdf:RDF></metadata><defs
     id="defs39" /><sodipodi:namedview
     pagecolor="#ffffff"
     bordercolor="#666666"
     borderopacity="1"
     objecttolerance="10"
     gridtolerance="10"
     guidetolerance="10"
     inkscape:pageopacity="0"
     inkscape:pageshadow="2"
     inkscape:window-width="1920"
     inkscape:window-height="1017"
     id="namedview37"
     showgrid="false"
     inkscape:zoom="1.1723027"
     inkscape:cx="72.187809"
     inkscape:cy="228.57662"
     inkscape:window-x="-8"
     inkscape:window-y="-8"
     inkscape:window-maximized="1"
     inkscape:current-layer="Capa_1"
     showborder="false" /><g
     id="g7" /><g
     id="g9" /><g
     id="g11" /><g
     id="g13" /><g
     id="g15" /><g
     id="g17" /><g
     id="g19" /><g
     id="g21" /><g
     id="g23" /><g
     id="g25" /><g
     id="g27" /><g
     id="g29" /><g
     id="g31" /><g
     id="g33" /><g
     id="g35" /><path
     style="opacity:1;fill:none;fill-opacity:1;fill-rule:nonzero;stroke:none;stroke-width:6.6;stroke-linecap:butt;stroke-linejoin:miter;stroke-miterlimit:4;stroke-dasharray:none;stroke-opacity:1"
     d="m 122.53081,507.79249 c -3.46716,-3.46716 -2.36624,-7.46605 2.77797,-10.09044 5.84595,-2.98238 10.52669,-8.45793 12.21533,-14.28954 1.51929,-5.24677 3.53788,-28.28479 3.61696,-41.28021 0.0563,-9.26005 2.48517,-17.07699 6.28201,-20.21819 1.61275,-1.33426 1.19072,-2.80621 -3.45878,-12.06355 -12.94036,-25.76476 -22.11751,-67.35868 -22.12183,-100.26346 -0.001,-9.6289 -0.97417,-9.03753 -10.46098,6.35842 -3.72111,6.03892 -8.40806,13.15129 -10.41544,15.80527 -6.103843,8.06997 -21.769415,23.52393 -23.846047,23.52393 -2.35886,0 -5.945458,-3.73021 -5.945458,-6.18353 0,-0.97421 2.210426,-3.9172 4.912059,-6.53996 8.227299,-7.98712 17.35535,-19.79738 25.747546,-33.31325 8.12369,-13.08344 14.2039,-19.7186 19.22397,-20.97855 2.46471,-0.61861 3.25108,-2.56235 6.71767,-16.60482 2.1594,-8.74731 6.59561,-22.91384 9.85824,-31.48118 3.26263,-8.56734 5.79404,-15.641 5.62535,-15.71924 -12.59285,-5.84144 -15.38614,-7.32652 -15.38614,-8.1802 0,-0.56793 1.16356,-3.31813 2.58569,-6.11155 5.74186,-11.27846 15.27108,-23.79664 26.7658,-35.16123 6.66831,-6.59282 11.45787,-12.20906 10.64347,-12.48053 -3.56675,-1.18892 -9.32909,-7.42725 -15.93413,-17.25034 -8.01734,-11.9235 -10.827,-14.3777 -16.46013,-14.3777 -7.54909,0 -9.70207,-9.2619 -2.67168,-11.49326 3.79792,-1.20541 10.81545,0.44511 15.84528,3.72681 2.5668,1.67469 7.54199,7.45047 11.62046,13.49038 8.8213,13.06365 11.44469,15.52913 18.11911,17.02841 7.04247,1.58195 8.9181,0.75509 7.97962,-3.5178 -1.12557,-5.12467 1.39236,-16.54231 5.4943,-24.91409 4.04643,-8.2585 10.92976,-15.0232 19.00471,-18.67718 5.80439,-2.62653 5.83315,-3.085 0.81771,-13.040284 -4.12732,-8.192413 -11.92209,-17.354722 -19.8068,-23.281772 -4.79182,-3.602073 -6.76003,-5.806492 -6.11549,-6.849392 0.71681,-1.159823 2.26676,-0.632193 6.30542,2.14648 9.03509,6.216309 18.68245,17.685428 23.57844,28.030888 4.37838,9.25173 4.64319,9.54013 8.78887,9.57189 4.10093,0.0314 4.43348,-0.30025 8.19205,-8.170263 2.15469,-4.511656 6.3428,-11.292957 9.30692,-15.069558 5.57873,-7.107877 18.3881,-18.026126 20.3736,-17.365715 2.67535,0.889874 1.29303,2.971402 -5.35704,8.066692 -3.89681,2.985729 -9.15439,7.999944 -11.68353,11.142699 -5.01768,6.235062 -12.63505,20.136905 -11.78631,21.510205 0.29157,0.47177 2.02812,1.22776 3.859,1.67998 5.53258,1.36653 14.70072,7.91834 19.04874,13.61277 5.84638,7.65678 9.05887,17.07713 9.1502,26.83224 0.093,9.93119 2.04225,11.75047 10.54349,9.84036 6.6261,-1.48878 8.61109,-3.345 17.19592,-16.08029 8.91602,-13.22662 13.56284,-16.90461 22.26975,-17.62665 7.30699,-0.60595 10.16882,0.85305 10.16882,5.18421 0,3.49325 -1.88764,4.92022 -7.68934,5.81281 -5.96032,0.917 -7.85979,2.69609 -16.79231,15.72826 -4.04679,5.90408 -9.33429,12.01491 -11.81873,13.65904 l -4.49579,2.97516 11.11757,11.07125 c 10.89706,10.85166 21.39005,25.19864 27.816,38.03259 1.77715,3.54933 3.05896,6.60644 2.84847,6.79357 -0.21048,0.18714 -3.91128,2.09751 -8.224,4.24527 -4.31272,2.14776 -7.97723,4.02183 -8.14334,4.16461 -0.16613,0.14278 1.89892,5.64274 4.589,12.22217 5.78954,14.16016 12.30099,35.26121 14.39399,46.64528 1.44691,7.86995 1.61614,8.1429 5.04855,8.1429 13.1025,0 21.30643,6.30955 33.107,25.46226 5.10273,8.28188 12.37805,17.82531 18.86229,24.74269 5.87778,6.27041 10.5556,12.31255 10.5556,13.63424 0,2.19798 -4.07412,6.12941 -6.35188,6.12941 -1.80106,0 -13.22365,-11.3252 -20.07725,-19.90608 -3.7101,-4.64513 -10.13678,-13.96412 -14.28152,-20.70886 -7.94899,-12.93542 -11.77227,-16.35396 -19.9087,-17.80116 l -4.52383,-0.80464 0,7.76816 c 0,29.3733 -9.08898,69.80203 -21.01784,93.48961 -2.37359,4.71332 -4.31562,8.81255 -4.31562,9.1094 0,0.29686 1.9258,1.17531 4.27956,1.95212 2.77683,0.91645 5.39571,3.09901 7.45822,6.21567 3.01465,4.55546 3.22764,5.90299 4.12769,26.11659 1.41804,31.8471 3.87205,39.79777 13.91597,45.08621 6.39298,3.36609 7.8999,7.25931 4.23023,10.929 -2.43076,2.43074 -2.63629,2.44192 -7.90447,0.42999 -7.91001,-3.02087 -14.52247,-10.79986 -17.69723,-20.81927 -2.06282,-6.5102 -2.81061,-12.87777 -3.52603,-30.02437 -0.5282,-12.65952 -1.50495,-22.87732 -2.33522,-24.4287 -1.00454,-1.87699 -2.54231,-2.66684 -5.19212,-2.66684 -3.21347,0 -5.52783,1.85737 -15.80206,12.68172 -20.25466,21.33915 -35.32937,29.39714 -56.96531,30.45001 -15.3138,0.74521 -23.24668,-0.89714 -36.56107,-7.56927 -11.30153,-5.66344 -25.14911,-17.35805 -33.46375,-28.26093 -2.55653,-3.35234 -5.05403,-6.09517 -5.55,-6.09517 -1.97662,0 -3.41691,9.78313 -3.46324,23.52393 -0.10305,30.55794 -6.57281,47.09953 -20.73552,53.01563 -5.58399,2.33256 -6.34586,2.33062 -8.69866,-0.0222 l 0,3e-5 z"
     id="path4193"
     inkscape:connector-curvature="0" /><path
     style="opacity:1;fill:#ffffff;fill-opacity:1;fill-rule:nonzero;stroke:none;stroke-width:2;stroke-linecap:butt;stroke-linejoin:miter;stroke-miterlimit:4;stroke-dasharray:none;stroke-opacity:1"
     d="m 51.159564,448.06923 c -1.35238,-1.35238 -1.76313,-2.31708 -1.76313,-4.1409 0,-3.16344 1.62219,-5.10636 5.89504,-7.0606 5.81104,-2.65776 8.62475,-6.18242 10.89865,-13.65249 1.95946,-6.43706 2.56885,-12.44132 3.11432,-30.68475 0.52172,-17.44949 0.91838,-20.50078 3.32412,-25.5705 0.59927,-1.26287 2.00508,-3.26683 3.12402,-4.45325 l 2.03442,-2.15712 -4.4972,-9.09223 c -10.76531,-21.76481 -17.0758,-43.37059 -20.5371,-70.31476 -1.21444,-9.45366 -2.3297,-30.18597 -1.88192,-34.9843 l 0.36587,-3.92066 -2.17129,2.41271 c -1.1942,1.32699 -4.47098,6.21273 -7.28172,10.8572 -5.80308,9.58902 -11.13127,17.21875 -16.38285,23.45951 -5.4474,6.47346 -14.67823,15.51717 -16.71901,16.38008 -4.60954,1.94909 -9.71637,-2.41452 -8.49958,-7.2626 0.20741,-0.8264 2.93923,-4.08557 6.0707,-7.2426 10.59809,-10.68458 17.01035,-19.21895 27.46091,-36.54899 4.8277,-8.00572 9.34482,-12.69884 14.8335,-15.4115 3.02286,-1.49398 4.58766,-2.63352 4.779,-3.48022 0.15647,-0.69241 0.84072,-3.8375 1.52055,-6.98911 3.34433,-15.50392 9.30389,-33.82922 16.53133,-50.83295 l 0.96791,-2.27715 -2.57797,-1.11806 c -1.41788,-0.61493 -5.24878,-2.37203 -8.5131,-3.90467 l -5.93514,-2.78662 3.1312,-5.88173 c 4.22099,-7.92881 11.231,-18.56475 16.65484,-25.26957 4.68009,-5.78542 17.16783,-18.17982 20.83179,-20.67609 l 2.1438,-1.46058 -3.51513,-2.34732 c -4.70243,-3.140161 -7.49835,-6.404671 -14.08526,-16.445931 -5.55897,-8.47425 -9.36215,-12.69308 -11.91861,-13.22121 -0.75479,-0.15594 -2.84909,-0.39938 -4.65401,-0.54099 -2.74976,-0.21575 -3.55631,-0.56488 -4.97621,-2.15403 -2.4203,-2.70878 -2.36509,-6.1252 0.13945,-8.62974 1.82359,-1.82359 1.86555,-1.83259 7.38892,-1.58502 4.89078,0.21922 6.00789,0.49134 9.34363,2.27609 5.00826,2.67959 9.77819,7.87172 15.17691,16.52024 2.3933,3.83397 5.47338,8.24543 6.84461,9.80323 2.628176,2.98578 7.438076,5.65845 10.201246,5.66844 0.8967,0.003 2.28737,0.30525 3.09038,0.67112 1.04123,0.47441 1.80518,0.48052 2.66328,0.0213 1.08298,-0.57959 1.23446,-1.44492 1.51546,-8.65733 0.25393,-6.51759 0.61324,-8.91411 1.92495,-12.8388 3.99694,-11.95909 12.00779,-21.39352 22.35034,-26.32218 1.99049,-0.94855 3.95836,-1.72485 4.37304,-1.72511 1.34094,-8.4e-4 0.81399,-1.87629 -2.32298,-8.26778 -5.286,-10.77011 -13.75363,-20.84312 -22.95073,-27.3019861 -2.32036,-1.629528 -4.50643,-3.05864 -4.85793,-3.175805 -0.8511,-0.283703 1.1083,-4.080532 2.10581,-4.080532 1.5127,0 9.25414,5.753785 14.34707,10.6633861 7.9053,7.620727 15.88309,19.663147 18.62618,28.116087 l 0.74223,2.28723 4.25925,-0.17611 4.25925,-0.1761 0.77403,-2.24162 c 1.33866,-3.87681 5.69043,-12.05613 8.91135,-16.74925 4.18205,-6.093542 12.83829,-14.6688441 19.06463,-18.8863611 l 5.10876,-3.460508 1.11742,2.178075 c 0.61458,1.197941 1.02994,2.246155 0.92301,2.329365 -0.10692,0.08321 -1.93773,1.320988 -4.06846,2.750616 -5.23325,3.5112821 -12.65424,10.7009931 -17.00539,16.4754031 -1.96867,2.61262 -5.06947,7.77809 -6.89067,11.47883 -2.93528,5.96458 -3.19042,6.77167 -2.24685,7.10771 5.80093,2.06595 9.90163,3.96811 12.80492,5.93969 4.18981,2.84524 9.83027,8.90161 12.64195,13.57411 4.27352,7.10185 6.86928,17.37374 6.61788,26.18821 l -0.12726,4.46184 2.22389,1.14093 c 1.9712,1.01128 2.6498,1.06369 5.97195,0.46128 7.69261,-1.39494 9.43386,-2.95076 18.25002,-16.3065 6.74651,-10.22039 9.98595,-13.60415 15.58139,-16.27553 4.26258,-2.03504 10.17221,-2.8195 13.34705,-1.7717 5.00252,1.65098 6.01149,8.35703 1.684,11.19252 -0.80004,0.5242 -3.12888,1.09675 -5.17521,1.27232 -6.38706,0.54801 -7.94169,1.92782 -15.74402,13.9736 -5.63666,8.70224 -9.89229,13.631731 -14.01882,16.238631 -1.4442,0.91235 -2.62629,1.81442 -2.62688,2.0046 -6e-4,0.19019 2.31883,2.32119 5.15429,4.73558 11.86902,10.10645 23.82483,25.7087 32.63636,42.59026 3.3758,6.46752 3.85399,7.75041 3.1498,8.45031 -0.78154,0.7768 -13.77393,7.64358 -15.50451,8.1945 -0.58526,0.18632 0.28294,2.85193 3.22126,9.89016 6.9197,16.57492 12.9604,36.00214 15.64255,50.30726 0.52435,2.79658 1.04132,5.17265 1.14884,5.28016 0.10752,0.10752 2.30205,0.46257 4.87674,0.78901 5.88444,0.74608 8.94012,1.56545 12.39396,3.32344 6.58664,3.35256 10.32346,7.62571 18.52055,21.17873 7.32777,12.11568 13.4767,20.16405 22.38782,29.30357 7.49652,7.68867 7.65753,7.91055 7.65753,10.55234 0,2.28576 -0.30131,2.96775 -1.96985,4.45858 -2.20232,1.96778 -4.64137,2.27119 -7.2817,0.90581 -2.0791,-1.07514 -13.04312,-12.40884 -18.07801,-18.68757 -4.65985,-5.81104 -8.44458,-11.38469 -14.0519,-20.69386 -8.54815,-14.19148 -10.92943,-16.17617 -21.49981,-17.91915 l -1.96033,-0.32324 -0.006,5.56431 c -0.0349,32.59994 -8.57908,70.14739 -22.10107,97.12381 -1.79513,3.5813 -3.10372,6.77061 -2.90796,7.08734 0.19575,0.31674 0.89356,0.57589 1.5507,0.57589 3.52393,0 9.32385,5.10722 11.46044,10.09169 1.75633,4.09736 2.26207,8.93784 2.91588,27.9085 0.62301,18.07664 1.53591,24.83755 4.17159,30.89457 1.78155,4.09413 5.82881,8.23434 9.74181,9.96553 1.82461,0.80725 3.78717,1.88842 4.36124,2.4026 1.43346,1.28392 1.96476,4.63452 1.07537,6.78169 -1.75406,4.23467 -6.09799,4.73524 -12.64951,1.45765 -10.61726,-5.31163 -16.40656,-15.82826 -18.72205,-34.00989 -0.35912,-2.81986 -0.79769,-11.64133 -0.9746,-19.60328 -0.35155,-15.82186 -0.85893,-19.90857 -2.774,-22.34318 -1.10965,-1.41069 -1.55391,-1.56049 -3.63926,-1.22703 -4.23465,0.67716 -6.77096,2.48021 -10.86622,7.72478 -14.50702,18.57834 -33.04007,31.05096 -52.31933,35.21057 -6.17322,1.33191 -20.70616,1.51842 -26.23822,0.33673 -10.69419,-2.28435 -22.31305,-7.41757 -31.17269,-13.77212 -6.91681,-4.96107 -16.264766,-14.06188 -22.513786,-21.91856 -5.69937,-7.16564 -5.67891,-7.15745 -7.04011,-2.81601 -0.33038,1.05372 -0.83146,9.78732 -1.11351,19.408 -0.54342,18.53582 -1.32036,25.18977 -3.88573,33.27829 -3.00398,9.47144 -8.66074,16.45403 -16.27295,20.087 -5.1021,2.43501 -8.24429,2.45343 -10.63539,0.0623 z"
     id="path4209"
     inkscape:connector-curvature="0"
     inkscape:export-xdpi="90"
     inkscape:export-ydpi="90" /></svg>